<svg width="21" height="24" viewBox="0 0 21 24" fill="none" xmlns="http://www.w3.org/2000/svg">
<path d="M0.166668 20.5423V8.91732C0.166668 8.50829 0.258376 8.12079 0.441793 7.75482C0.625209 7.38885 0.877946 7.08746 1.2 6.85065L8.95 1.03815C9.40209 0.693707 9.91875 0.521484 10.5 0.521484C11.0813 0.521484 11.5979 0.693707 12.05 1.03815L19.8 6.85065C20.1229 7.08746 20.3761 7.38885 20.5595 7.75482C20.7429 8.12079 20.8342 8.50829 20.8333 8.91732V20.5423C20.8333 21.2527 20.5802 21.8611 20.0738 22.3674C19.5675 22.8738 18.9596 23.1265 18.25 23.1257H14.375C14.009 23.1257 13.7025 23.0017 13.4553 22.7537C13.2082 22.5057 13.0842 22.1991 13.0833 21.834V15.3757C13.0833 15.0097 12.9593 14.7031 12.7113 14.456C12.4633 14.2088 12.1568 14.0848 11.7917 14.084H9.20834C8.84236 14.084 8.53581 14.208 8.28867 14.456C8.04153 14.704 7.91753 15.0105 7.91667 15.3757V21.834C7.91667 22.2 7.79267 22.5069 7.54467 22.7549C7.29667 23.0029 6.99011 23.1265 6.625 23.1257H2.75C2.03958 23.1257 1.43164 22.8729 0.926168 22.3674C0.420695 21.862 0.167529 21.2536 0.166668 20.5423Z" fill="black"/>
</svg>
